<svg xmlns="http://www.w3.org/2000/svg" viewBox="0 0 440 300"><defs><linearGradient id="cover" x1="0" y1="0" x2="1" y2="1"><stop stop-color="#FF8FAB"/><stop offset="1" stop-color="#9B87F5"/></linearGradient></defs><ellipse cx="220" cy="270" rx="150" ry="18" fill="#26384d" opacity=".14"/><path d="M52 72 Q130 38 218 74 L218 244 Q132 208 52 242Z" fill="#FFFDF4" stroke="#C98B67" stroke-width="7"/><path d="M388 72 Q310 38 222 74 L222 244 Q308 208 388 242Z" fill="#FFFDF4" stroke="#C98B67" stroke-width="7"/><path d="M218 74 Q220 56 222 74 L222 244 Q220 258 218 244Z" fill="#E9A06F"/><rect x="75" y="94" width="120" height="92" rx="16" fill="#A8E6CF"/><rect x="245" y="94" width="120" height="92" rx="16" fill="#BDE0FE"/><circle cx="135" cy="142" r="24" fill="#FFD166"/><path d="M92 170 Q135 124 178 170" fill="#63D44A"/><circle cx="305" cy="135" r="23" fill="#FF8FAB"/><path d="M266 170 Q305 130 344 170" fill="#4CC9F0"/><path d="M110 212h84M256 212h84" stroke="#D9B9A4" stroke-width="8" stroke-linecap="round"/></svg>
