<svg xmlns="http://www.w3.org/2000/svg" viewBox="0 0 400 400">
  <g class="fill-layer">
    <path id="body" class="fruit-region" data-region-id="body" data-target-color="#E53935" d="M 300.0,220.0 L 299.1,233.1 L 296.6,245.9 L 292.4,258.3 L 286.6,270.0 L 279.3,280.9 L 270.7,290.7 L 260.9,299.3 L 250.0,306.6 L 238.3,312.4 L 225.9,316.6 L 213.1,319.1 L 200.0,320.0 L 186.9,319.1 L 174.1,316.6 L 161.7,312.4 L 150.0,306.6 L 139.1,299.3 L 129.3,290.7 L 120.7,280.9 L 113.4,270.0 L 107.6,258.3 L 103.4,245.9 L 100.9,233.1 L 100.0,220.0 L 100.9,206.9 L 103.4,194.1 L 107.6,181.7 L 113.4,170.0 L 120.7,159.1 L 129.3,149.3 L 139.1,140.7 L 150.0,133.4 L 161.7,127.6 L 174.1,123.4 L 186.9,120.9 L 200.0,120.0 L 213.1,120.9 L 225.9,123.4 L 238.3,127.6 L 250.0,133.4 L 260.9,140.7 L 270.7,149.3 L 279.3,159.1 L 286.6,170.0 L 292.4,181.7 L 296.6,194.1 L 299.1,206.9 Z" fill="#FADBDB"/><path id="stem" class="fruit-region" data-region-id="stem" data-target-color="#6D4C41" d="M 215.5,104.9 L 216.5,108.1 L 217.5,111.4 L 218.2,114.5 L 218.8,117.6 L 219.1,120.4 L 219.3,123.1 L 219.2,125.5 L 218.9,127.6 L 218.5,129.4 L 217.8,130.8 L 216.9,131.8 L 215.9,132.4 L 214.7,132.6 L 213.4,132.4 L 212.0,131.8 L 210.5,130.7 L 208.9,129.3 L 207.3,127.5 L 205.7,125.3 L 204.1,122.9 L 202.6,120.2 L 201.1,117.3 L 199.8,114.2 L 198.5,111.1 L 197.5,107.9 L 196.5,104.6 L 195.8,101.5 L 195.2,98.4 L 194.9,95.6 L 194.7,92.9 L 194.8,90.5 L 195.1,88.4 L 195.5,86.6 L 196.2,85.2 L 197.1,84.2 L 198.1,83.6 L 199.3,83.4 L 200.6,83.6 L 202.0,84.2 L 203.5,85.3 L 205.1,86.7 L 206.7,88.5 L 208.3,90.7 L 209.9,93.1 L 211.4,95.8 L 212.9,98.7 L 214.2,101.8 Z" fill="#E5DFDD"/><path id="leaf" class="fruit-region" data-region-id="leaf" data-target-color="#43A047" d="M 270.8,85.6 L 271.4,87.5 L 271.4,89.6 L 270.9,91.9 L 269.9,94.4 L 268.3,96.9 L 266.3,99.5 L 263.8,102.0 L 260.9,104.6 L 257.6,107.1 L 254.1,109.4 L 250.3,111.6 L 246.3,113.6 L 242.3,115.4 L 238.1,116.9 L 234.1,118.1 L 230.1,119.0 L 226.3,119.5 L 222.7,119.8 L 219.4,119.7 L 216.5,119.2 L 214.0,118.5 L 211.9,117.4 L 210.3,116.0 L 209.2,114.4 L 208.6,112.5 L 208.6,110.4 L 209.1,108.1 L 210.1,105.6 L 211.7,103.1 L 213.7,100.5 L 216.2,98.0 L 219.1,95.4 L 222.4,92.9 L 225.9,90.6 L 229.7,88.4 L 233.7,86.4 L 237.7,84.6 L 241.9,83.1 L 245.9,81.9 L 249.9,81.0 L 253.7,80.5 L 257.3,80.2 L 260.6,80.3 L 263.5,80.8 L 266.0,81.5 L 268.1,82.6 L 269.7,84.0 Z" fill="#DDEEDE"/>
  </g>
  <g class="line-art" pointer-events="none">
    <path d="M 300.0,220.0 L 299.1,233.1 L 296.6,245.9 L 292.4,258.3 L 286.6,270.0 L 279.3,280.9 L 270.7,290.7 L 260.9,299.3 L 250.0,306.6 L 238.3,312.4 L 225.9,316.6 L 213.1,319.1 L 200.0,320.0 L 186.9,319.1 L 174.1,316.6 L 161.7,312.4 L 150.0,306.6 L 139.1,299.3 L 129.3,290.7 L 120.7,280.9 L 113.4,270.0 L 107.6,258.3 L 103.4,245.9 L 100.9,233.1 L 100.0,220.0 L 100.9,206.9 L 103.4,194.1 L 107.6,181.7 L 113.4,170.0 L 120.7,159.1 L 129.3,149.3 L 139.1,140.7 L 150.0,133.4 L 161.7,127.6 L 174.1,123.4 L 186.9,120.9 L 200.0,120.0 L 213.1,120.9 L 225.9,123.4 L 238.3,127.6 L 250.0,133.4 L 260.9,140.7 L 270.7,149.3 L 279.3,159.1 L 286.6,170.0 L 292.4,181.7 L 296.6,194.1 L 299.1,206.9 Z" fill="none" stroke="#1f2937" stroke-width="4" stroke-linejoin="round"/><path d="M 215.5,104.9 L 216.5,108.1 L 217.5,111.4 L 218.2,114.5 L 218.8,117.6 L 219.1,120.4 L 219.3,123.1 L 219.2,125.5 L 218.9,127.6 L 218.5,129.4 L 217.8,130.8 L 216.9,131.8 L 215.9,132.4 L 214.7,132.6 L 213.4,132.4 L 212.0,131.8 L 210.5,130.7 L 208.9,129.3 L 207.3,127.5 L 205.7,125.3 L 204.1,122.9 L 202.6,120.2 L 201.1,117.3 L 199.8,114.2 L 198.5,111.1 L 197.5,107.9 L 196.5,104.6 L 195.8,101.5 L 195.2,98.4 L 194.9,95.6 L 194.7,92.9 L 194.8,90.5 L 195.1,88.4 L 195.5,86.6 L 196.2,85.2 L 197.1,84.2 L 198.1,83.6 L 199.3,83.4 L 200.6,83.6 L 202.0,84.2 L 203.5,85.3 L 205.1,86.7 L 206.7,88.5 L 208.3,90.7 L 209.9,93.1 L 211.4,95.8 L 212.9,98.7 L 214.2,101.8 Z" fill="none" stroke="#1f2937" stroke-width="4" stroke-linejoin="round"/><path d="M 270.8,85.6 L 271.4,87.5 L 271.4,89.6 L 270.9,91.9 L 269.9,94.4 L 268.3,96.9 L 266.3,99.5 L 263.8,102.0 L 260.9,104.6 L 257.6,107.1 L 254.1,109.4 L 250.3,111.6 L 246.3,113.6 L 242.3,115.4 L 238.1,116.9 L 234.1,118.1 L 230.1,119.0 L 226.3,119.5 L 222.7,119.8 L 219.4,119.7 L 216.5,119.2 L 214.0,118.5 L 211.9,117.4 L 210.3,116.0 L 209.2,114.4 L 208.6,112.5 L 208.6,110.4 L 209.1,108.1 L 210.1,105.6 L 211.7,103.1 L 213.7,100.5 L 216.2,98.0 L 219.1,95.4 L 222.4,92.9 L 225.9,90.6 L 229.7,88.4 L 233.7,86.4 L 237.7,84.6 L 241.9,83.1 L 245.9,81.9 L 249.9,81.0 L 253.7,80.5 L 257.3,80.2 L 260.6,80.3 L 263.5,80.8 L 266.0,81.5 L 268.1,82.6 L 269.7,84.0 Z" fill="none" stroke="#1f2937" stroke-width="4" stroke-linejoin="round"/>
  </g>
</svg>