<svg xmlns="http://www.w3.org/2000/svg" viewBox="0 0 400 400">
  <g class="fill-layer">
    <path id="body" class="fruit-region" data-region-id="body" data-target-color="#FDD835" d="M 150.0,300.0 L 151.3,291.8 L 152.9,283.9 L 154.8,276.4 L 156.8,269.2 L 159.1,262.3 L 161.5,255.8 L 164.1,249.7 L 166.7,244.0 L 169.4,238.6 L 172.1,233.6 L 174.8,228.9 L 177.5,224.6 L 180.2,220.5 L 182.7,216.7 L 185.2,213.1 L 187.5,209.7 L 189.8,206.3 L 192.0,203.1 L 194.0,199.9 L 196.0,196.6 L 198.0,193.3 L 199.9,189.9 L 201.8,186.3 L 203.9,182.5 L 206.0,178.6 L 208.2,174.5 L 210.6,170.1 L 213.2,165.5 L 216.1,160.8 L 219.2,155.8 L 222.7,150.6 L 226.4,145.3 L 230.6,139.9 L 235.0,134.3 L 239.9,128.6 L 245.1,122.9 L 250.7,117.2 L 256.8,111.4 L 263.2,105.7 L 270.0,100.0 L 270.0,100.0 L 261.1,99.4 L 252.2,99.1 L 243.5,98.9 L 234.9,99.1 L 226.4,99.5 L 218.0,100.2 L 209.7,101.3 L 201.6,102.7 L 193.6,104.5 L 185.8,106.7 L 178.2,109.4 L 170.8,112.5 L 163.6,116.0 L 156.8,120.0 L 150.3,124.5 L 144.1,129.5 L 138.4,134.8 L 133.1,140.6 L 128.3,146.8 L 124.0,153.4 L 120.2,160.3 L 117.0,167.4 L 114.5,174.8 L 112.5,182.3 L 111.1,190.0 L 110.3,197.8 L 110.1,205.6 L 110.5,213.4 L 111.4,221.2 L 112.9,228.9 L 114.9,236.5 L 117.3,244.0 L 120.2,251.4 L 123.5,258.7 L 127.1,265.8 L 131.2,272.8 L 135.5,279.8 L 140.1,286.6 L 144.9,293.3 L 150.0,300.0 Z" fill="#FFF8DB"/><path id="tip" class="fruit-region" data-region-id="tip" data-target-color="#6D4C41" d="M 286.0,100.0 L 285.9,101.8 L 285.5,103.6 L 284.9,105.4 L 284.1,107.0 L 283.1,108.5 L 281.9,109.9 L 280.5,111.1 L 279.0,112.1 L 277.4,112.9 L 275.6,113.5 L 273.8,113.9 L 272.0,114.0 L 270.2,113.9 L 268.4,113.5 L 266.6,112.9 L 265.0,112.1 L 263.5,111.1 L 262.1,109.9 L 260.9,108.5 L 259.9,107.0 L 259.1,105.4 L 258.5,103.6 L 258.1,101.8 L 258.0,100.0 L 258.1,98.2 L 258.5,96.4 L 259.1,94.6 L 259.9,93.0 L 260.9,91.5 L 262.1,90.1 L 263.5,88.9 L 265.0,87.9 L 266.6,87.1 L 268.4,86.5 L 270.2,86.1 L 272.0,86.0 L 273.8,86.1 L 275.6,86.5 L 277.4,87.1 L 279.0,87.9 L 280.5,88.9 L 281.9,90.1 L 283.1,91.5 L 284.1,93.0 L 284.9,94.6 L 285.5,96.4 L 285.9,98.2 Z" fill="#E5DFDD"/>
  </g>
  <g class="line-art" pointer-events="none">
    <path d="M 150.0,300.0 L 151.3,291.8 L 152.9,283.9 L 154.8,276.4 L 156.8,269.2 L 159.1,262.3 L 161.5,255.8 L 164.1,249.7 L 166.7,244.0 L 169.4,238.6 L 172.1,233.6 L 174.8,228.9 L 177.5,224.6 L 180.2,220.5 L 182.7,216.7 L 185.2,213.1 L 187.5,209.7 L 189.8,206.3 L 192.0,203.1 L 194.0,199.9 L 196.0,196.6 L 198.0,193.3 L 199.9,189.9 L 201.8,186.3 L 203.9,182.5 L 206.0,178.6 L 208.2,174.5 L 210.6,170.1 L 213.2,165.5 L 216.1,160.8 L 219.2,155.8 L 222.7,150.6 L 226.4,145.3 L 230.6,139.9 L 235.0,134.3 L 239.9,128.6 L 245.1,122.9 L 250.7,117.2 L 256.8,111.4 L 263.2,105.7 L 270.0,100.0 L 270.0,100.0 L 261.1,99.4 L 252.2,99.1 L 243.5,98.9 L 234.9,99.1 L 226.4,99.5 L 218.0,100.2 L 209.7,101.3 L 201.6,102.7 L 193.6,104.5 L 185.8,106.7 L 178.2,109.4 L 170.8,112.5 L 163.6,116.0 L 156.8,120.0 L 150.3,124.5 L 144.1,129.5 L 138.4,134.8 L 133.1,140.6 L 128.3,146.8 L 124.0,153.4 L 120.2,160.3 L 117.0,167.4 L 114.5,174.8 L 112.5,182.3 L 111.1,190.0 L 110.3,197.8 L 110.1,205.6 L 110.5,213.4 L 111.4,221.2 L 112.9,228.9 L 114.9,236.5 L 117.3,244.0 L 120.2,251.4 L 123.5,258.7 L 127.1,265.8 L 131.2,272.8 L 135.5,279.8 L 140.1,286.6 L 144.9,293.3 L 150.0,300.0 Z" fill="none" stroke="#1f2937" stroke-width="4" stroke-linejoin="round"/><path d="M 286.0,100.0 L 285.9,101.8 L 285.5,103.6 L 284.9,105.4 L 284.1,107.0 L 283.1,108.5 L 281.9,109.9 L 280.5,111.1 L 279.0,112.1 L 277.4,112.9 L 275.6,113.5 L 273.8,113.9 L 272.0,114.0 L 270.2,113.9 L 268.4,113.5 L 266.6,112.9 L 265.0,112.1 L 263.5,111.1 L 262.1,109.9 L 260.9,108.5 L 259.9,107.0 L 259.1,105.4 L 258.5,103.6 L 258.1,101.8 L 258.0,100.0 L 258.1,98.2 L 258.5,96.4 L 259.1,94.6 L 259.9,93.0 L 260.9,91.5 L 262.1,90.1 L 263.5,88.9 L 265.0,87.9 L 266.6,87.1 L 268.4,86.5 L 270.2,86.1 L 272.0,86.0 L 273.8,86.1 L 275.6,86.5 L 277.4,87.1 L 279.0,87.9 L 280.5,88.9 L 281.9,90.1 L 283.1,91.5 L 284.1,93.0 L 284.9,94.6 L 285.5,96.4 L 285.9,98.2 Z" fill="none" stroke="#1f2937" stroke-width="4" stroke-linejoin="round"/><path d="M 155.0,285.0 L 153.6,278.3 L 152.4,271.6 L 151.4,265.2 L 150.6,258.8 L 150.0,252.6 L 149.7,246.5 L 149.5,240.6 L 149.6,234.8 L 149.8,229.1 L 150.2,223.6 L 150.9,218.2 L 151.7,212.9 L 152.7,207.8 L 153.9,202.8 L 155.3,197.9 L 156.9,193.1 L 158.7,188.5 L 160.6,184.0 L 162.8,179.5 L 165.1,175.2 L 167.6,171.0 L 170.3,166.9 L 173.3,163.0 L 176.4,159.1 L 179.7,155.3 L 183.2,151.6 L 186.9,147.9 L 190.8,144.4 L 195.0,141.0 L 199.3,137.7 L 203.9,134.5 L 208.7,131.3 L 213.7,128.3 L 218.9,125.4 L 224.4,122.5 L 230.1,119.8 L 236.0,117.2 L 242.1,114.7 L 248.4,112.3 L 255.0,110.0 L 255.0,110.0 L 248.3,111.8 L 241.8,113.8 L 235.5,115.9 L 229.3,118.1 L 223.4,120.4 L 217.7,122.9 L 212.2,125.5 L 206.9,128.3 L 201.8,131.2 L 196.9,134.2 L 192.2,137.4 L 187.8,140.7 L 183.5,144.1 L 179.5,147.7 L 175.6,151.5 L 172.0,155.3 L 168.7,159.4 L 165.5,163.5 L 162.6,167.8 L 159.9,172.3 L 157.4,176.8 L 155.2,181.5 L 153.2,186.3 L 151.5,191.3 L 150.0,196.3 L 148.7,201.5 L 147.7,206.8 L 146.9,212.2 L 146.3,217.7 L 146.0,223.3 L 145.9,229.0 L 146.0,234.8 L 146.4,240.7 L 147.0,246.7 L 147.8,252.9 L 148.8,259.1 L 150.0,265.4 L 151.5,271.8 L 153.1,278.4 L 155.0,285.0 Z" fill="#F9A825"/>
  </g>
</svg>