<svg xmlns="http://www.w3.org/2000/svg" viewBox="0 0 400 400">
  <g class="fill-layer">
    <path id="cluster-0" class="fruit-region" data-region-id="cluster" data-target-color="#8E24AA" d="M 167.0,160.0 L 166.8,163.5 L 166.1,167.0 L 164.9,170.3 L 163.4,173.5 L 161.4,176.4 L 159.1,179.1 L 156.4,181.4 L 153.5,183.4 L 150.3,184.9 L 147.0,186.1 L 143.5,186.8 L 140.0,187.0 L 136.5,186.8 L 133.0,186.1 L 129.7,184.9 L 126.5,183.4 L 123.6,181.4 L 120.9,179.1 L 118.6,176.4 L 116.6,173.5 L 115.1,170.3 L 113.9,167.0 L 113.2,163.5 L 113.0,160.0 L 113.2,156.5 L 113.9,153.0 L 115.1,149.7 L 116.6,146.5 L 118.6,143.6 L 120.9,140.9 L 123.6,138.6 L 126.5,136.6 L 129.7,135.1 L 133.0,133.9 L 136.5,133.2 L 140.0,133.0 L 143.5,133.2 L 147.0,133.9 L 150.3,135.1 L 153.5,136.6 L 156.4,138.6 L 159.1,140.9 L 161.4,143.6 L 163.4,146.5 L 164.9,149.7 L 166.1,153.0 L 166.8,156.5 Z" fill="#EBD8F0"/><path id="cluster-1" class="fruit-region" data-region-id="cluster" data-target-color="#8E24AA" d="M 207.0,160.0 L 206.8,163.5 L 206.1,167.0 L 204.9,170.3 L 203.4,173.5 L 201.4,176.4 L 199.1,179.1 L 196.4,181.4 L 193.5,183.4 L 190.3,184.9 L 187.0,186.1 L 183.5,186.8 L 180.0,187.0 L 176.5,186.8 L 173.0,186.1 L 169.7,184.9 L 166.5,183.4 L 163.6,181.4 L 160.9,179.1 L 158.6,176.4 L 156.6,173.5 L 155.1,170.3 L 153.9,167.0 L 153.2,163.5 L 153.0,160.0 L 153.2,156.5 L 153.9,153.0 L 155.1,149.7 L 156.6,146.5 L 158.6,143.6 L 160.9,140.9 L 163.6,138.6 L 166.5,136.6 L 169.7,135.1 L 173.0,133.9 L 176.5,133.2 L 180.0,133.0 L 183.5,133.2 L 187.0,133.9 L 190.3,135.1 L 193.5,136.6 L 196.4,138.6 L 199.1,140.9 L 201.4,143.6 L 203.4,146.5 L 204.9,149.7 L 206.1,153.0 L 206.8,156.5 Z" fill="#EBD8F0"/><path id="cluster-2" class="fruit-region" data-region-id="cluster" data-target-color="#8E24AA" d="M 247.0,160.0 L 246.8,163.5 L 246.1,167.0 L 244.9,170.3 L 243.4,173.5 L 241.4,176.4 L 239.1,179.1 L 236.4,181.4 L 233.5,183.4 L 230.3,184.9 L 227.0,186.1 L 223.5,186.8 L 220.0,187.0 L 216.5,186.8 L 213.0,186.1 L 209.7,184.9 L 206.5,183.4 L 203.6,181.4 L 200.9,179.1 L 198.6,176.4 L 196.6,173.5 L 195.1,170.3 L 193.9,167.0 L 193.2,163.5 L 193.0,160.0 L 193.2,156.5 L 193.9,153.0 L 195.1,149.7 L 196.6,146.5 L 198.6,143.6 L 200.9,140.9 L 203.6,138.6 L 206.5,136.6 L 209.7,135.1 L 213.0,133.9 L 216.5,133.2 L 220.0,133.0 L 223.5,133.2 L 227.0,133.9 L 230.3,135.1 L 233.5,136.6 L 236.4,138.6 L 239.1,140.9 L 241.4,143.6 L 243.4,146.5 L 244.9,149.7 L 246.1,153.0 L 246.8,156.5 Z" fill="#EBD8F0"/><path id="cluster-3" class="fruit-region" data-region-id="cluster" data-target-color="#8E24AA" d="M 287.0,160.0 L 286.8,163.5 L 286.1,167.0 L 284.9,170.3 L 283.4,173.5 L 281.4,176.4 L 279.1,179.1 L 276.4,181.4 L 273.5,183.4 L 270.3,184.9 L 267.0,186.1 L 263.5,186.8 L 260.0,187.0 L 256.5,186.8 L 253.0,186.1 L 249.7,184.9 L 246.5,183.4 L 243.6,181.4 L 240.9,179.1 L 238.6,176.4 L 236.6,173.5 L 235.1,170.3 L 233.9,167.0 L 233.2,163.5 L 233.0,160.0 L 233.2,156.5 L 233.9,153.0 L 235.1,149.7 L 236.6,146.5 L 238.6,143.6 L 240.9,140.9 L 243.6,138.6 L 246.5,136.6 L 249.7,135.1 L 253.0,133.9 L 256.5,133.2 L 260.0,133.0 L 263.5,133.2 L 267.0,133.9 L 270.3,135.1 L 273.5,136.6 L 276.4,138.6 L 279.1,140.9 L 281.4,143.6 L 283.4,146.5 L 284.9,149.7 L 286.1,153.0 L 286.8,156.5 Z" fill="#EBD8F0"/><path id="cluster-4" class="fruit-region" data-region-id="cluster" data-target-color="#8E24AA" d="M 187.0,200.0 L 186.8,203.5 L 186.1,207.0 L 184.9,210.3 L 183.4,213.5 L 181.4,216.4 L 179.1,219.1 L 176.4,221.4 L 173.5,223.4 L 170.3,224.9 L 167.0,226.1 L 163.5,226.8 L 160.0,227.0 L 156.5,226.8 L 153.0,226.1 L 149.7,224.9 L 146.5,223.4 L 143.6,221.4 L 140.9,219.1 L 138.6,216.4 L 136.6,213.5 L 135.1,210.3 L 133.9,207.0 L 133.2,203.5 L 133.0,200.0 L 133.2,196.5 L 133.9,193.0 L 135.1,189.7 L 136.6,186.5 L 138.6,183.6 L 140.9,180.9 L 143.6,178.6 L 146.5,176.6 L 149.7,175.1 L 153.0,173.9 L 156.5,173.2 L 160.0,173.0 L 163.5,173.2 L 167.0,173.9 L 170.3,175.1 L 173.5,176.6 L 176.4,178.6 L 179.1,180.9 L 181.4,183.6 L 183.4,186.5 L 184.9,189.7 L 186.1,193.0 L 186.8,196.5 Z" fill="#EBD8F0"/><path id="cluster-5" class="fruit-region" data-region-id="cluster" data-target-color="#8E24AA" d="M 227.0,200.0 L 226.8,203.5 L 226.1,207.0 L 224.9,210.3 L 223.4,213.5 L 221.4,216.4 L 219.1,219.1 L 216.4,221.4 L 213.5,223.4 L 210.3,224.9 L 207.0,226.1 L 203.5,226.8 L 200.0,227.0 L 196.5,226.8 L 193.0,226.1 L 189.7,224.9 L 186.5,223.4 L 183.6,221.4 L 180.9,219.1 L 178.6,216.4 L 176.6,213.5 L 175.1,210.3 L 173.9,207.0 L 173.2,203.5 L 173.0,200.0 L 173.2,196.5 L 173.9,193.0 L 175.1,189.7 L 176.6,186.5 L 178.6,183.6 L 180.9,180.9 L 183.6,178.6 L 186.5,176.6 L 189.7,175.1 L 193.0,173.9 L 196.5,173.2 L 200.0,173.0 L 203.5,173.2 L 207.0,173.9 L 210.3,175.1 L 213.5,176.6 L 216.4,178.6 L 219.1,180.9 L 221.4,183.6 L 223.4,186.5 L 224.9,189.7 L 226.1,193.0 L 226.8,196.5 Z" fill="#EBD8F0"/><path id="cluster-6" class="fruit-region" data-region-id="cluster" data-target-color="#8E24AA" d="M 267.0,200.0 L 266.8,203.5 L 266.1,207.0 L 264.9,210.3 L 263.4,213.5 L 261.4,216.4 L 259.1,219.1 L 256.4,221.4 L 253.5,223.4 L 250.3,224.9 L 247.0,226.1 L 243.5,226.8 L 240.0,227.0 L 236.5,226.8 L 233.0,226.1 L 229.7,224.9 L 226.5,223.4 L 223.6,221.4 L 220.9,219.1 L 218.6,216.4 L 216.6,213.5 L 215.1,210.3 L 213.9,207.0 L 213.2,203.5 L 213.0,200.0 L 213.2,196.5 L 213.9,193.0 L 215.1,189.7 L 216.6,186.5 L 218.6,183.6 L 220.9,180.9 L 223.6,178.6 L 226.5,176.6 L 229.7,175.1 L 233.0,173.9 L 236.5,173.2 L 240.0,173.0 L 243.5,173.2 L 247.0,173.9 L 250.3,175.1 L 253.5,176.6 L 256.4,178.6 L 259.1,180.9 L 261.4,183.6 L 263.4,186.5 L 264.9,189.7 L 266.1,193.0 L 266.8,196.5 Z" fill="#EBD8F0"/><path id="cluster-7" class="fruit-region" data-region-id="cluster" data-target-color="#8E24AA" d="M 202.0,238.0 L 201.8,241.5 L 201.1,245.0 L 199.9,248.3 L 198.4,251.5 L 196.4,254.4 L 194.1,257.1 L 191.4,259.4 L 188.5,261.4 L 185.3,262.9 L 182.0,264.1 L 178.5,264.8 L 175.0,265.0 L 171.5,264.8 L 168.0,264.1 L 164.7,262.9 L 161.5,261.4 L 158.6,259.4 L 155.9,257.1 L 153.6,254.4 L 151.6,251.5 L 150.1,248.3 L 148.9,245.0 L 148.2,241.5 L 148.0,238.0 L 148.2,234.5 L 148.9,231.0 L 150.1,227.7 L 151.6,224.5 L 153.6,221.6 L 155.9,218.9 L 158.6,216.6 L 161.5,214.6 L 164.7,213.1 L 168.0,211.9 L 171.5,211.2 L 175.0,211.0 L 178.5,211.2 L 182.0,211.9 L 185.3,213.1 L 188.5,214.6 L 191.4,216.6 L 194.1,218.9 L 196.4,221.6 L 198.4,224.5 L 199.9,227.7 L 201.1,231.0 L 201.8,234.5 Z" fill="#EBD8F0"/><path id="cluster-8" class="fruit-region" data-region-id="cluster" data-target-color="#8E24AA" d="M 252.0,238.0 L 251.8,241.5 L 251.1,245.0 L 249.9,248.3 L 248.4,251.5 L 246.4,254.4 L 244.1,257.1 L 241.4,259.4 L 238.5,261.4 L 235.3,262.9 L 232.0,264.1 L 228.5,264.8 L 225.0,265.0 L 221.5,264.8 L 218.0,264.1 L 214.7,262.9 L 211.5,261.4 L 208.6,259.4 L 205.9,257.1 L 203.6,254.4 L 201.6,251.5 L 200.1,248.3 L 198.9,245.0 L 198.2,241.5 L 198.0,238.0 L 198.2,234.5 L 198.9,231.0 L 200.1,227.7 L 201.6,224.5 L 203.6,221.6 L 205.9,218.9 L 208.6,216.6 L 211.5,214.6 L 214.7,213.1 L 218.0,211.9 L 221.5,211.2 L 225.0,211.0 L 228.5,211.2 L 232.0,211.9 L 235.3,213.1 L 238.5,214.6 L 241.4,216.6 L 244.1,218.9 L 246.4,221.6 L 248.4,224.5 L 249.9,227.7 L 251.1,231.0 L 251.8,234.5 Z" fill="#EBD8F0"/><path id="cluster-9" class="fruit-region" data-region-id="cluster" data-target-color="#8E24AA" d="M 227.0,272.0 L 226.8,275.5 L 226.1,279.0 L 224.9,282.3 L 223.4,285.5 L 221.4,288.4 L 219.1,291.1 L 216.4,293.4 L 213.5,295.4 L 210.3,296.9 L 207.0,298.1 L 203.5,298.8 L 200.0,299.0 L 196.5,298.8 L 193.0,298.1 L 189.7,296.9 L 186.5,295.4 L 183.6,293.4 L 180.9,291.1 L 178.6,288.4 L 176.6,285.5 L 175.1,282.3 L 173.9,279.0 L 173.2,275.5 L 173.0,272.0 L 173.2,268.5 L 173.9,265.0 L 175.1,261.7 L 176.6,258.5 L 178.6,255.6 L 180.9,252.9 L 183.6,250.6 L 186.5,248.6 L 189.7,247.1 L 193.0,245.9 L 196.5,245.2 L 200.0,245.0 L 203.5,245.2 L 207.0,245.9 L 210.3,247.1 L 213.5,248.6 L 216.4,250.6 L 219.1,252.9 L 221.4,255.6 L 223.4,258.5 L 224.9,261.7 L 226.1,265.0 L 226.8,268.5 Z" fill="#EBD8F0"/><path id="stem" class="fruit-region" data-region-id="stem" data-target-color="#6D4C41" d="M 208.0,120.0 L 207.9,123.1 L 207.7,126.2 L 207.4,129.2 L 206.9,132.0 L 206.3,134.6 L 205.7,137.0 L 204.9,139.0 L 204.0,140.8 L 203.1,142.2 L 202.1,143.2 L 201.0,143.8 L 200.0,144.0 L 199.0,143.8 L 197.9,143.2 L 196.9,142.2 L 196.0,140.8 L 195.1,139.0 L 194.3,137.0 L 193.7,134.6 L 193.1,132.0 L 192.6,129.2 L 192.3,126.2 L 192.1,123.1 L 192.0,120.0 L 192.1,116.9 L 192.3,113.8 L 192.6,110.8 L 193.1,108.0 L 193.7,105.4 L 194.3,103.0 L 195.1,101.0 L 196.0,99.2 L 196.9,97.8 L 197.9,96.8 L 199.0,96.2 L 200.0,96.0 L 201.0,96.2 L 202.1,96.8 L 203.1,97.8 L 204.0,99.2 L 204.9,101.0 L 205.7,103.0 L 206.3,105.4 L 206.9,108.0 L 207.4,110.8 L 207.7,113.8 L 207.9,116.9 Z" fill="#E5DFDD"/>
  </g>
  <g class="line-art" pointer-events="none">
    <path d="M 167.0,160.0 L 166.8,163.5 L 166.1,167.0 L 164.9,170.3 L 163.4,173.5 L 161.4,176.4 L 159.1,179.1 L 156.4,181.4 L 153.5,183.4 L 150.3,184.9 L 147.0,186.1 L 143.5,186.8 L 140.0,187.0 L 136.5,186.8 L 133.0,186.1 L 129.7,184.9 L 126.5,183.4 L 123.6,181.4 L 120.9,179.1 L 118.6,176.4 L 116.6,173.5 L 115.1,170.3 L 113.9,167.0 L 113.2,163.5 L 113.0,160.0 L 113.2,156.5 L 113.9,153.0 L 115.1,149.7 L 116.6,146.5 L 118.6,143.6 L 120.9,140.9 L 123.6,138.6 L 126.5,136.6 L 129.7,135.1 L 133.0,133.9 L 136.5,133.2 L 140.0,133.0 L 143.5,133.2 L 147.0,133.9 L 150.3,135.1 L 153.5,136.6 L 156.4,138.6 L 159.1,140.9 L 161.4,143.6 L 163.4,146.5 L 164.9,149.7 L 166.1,153.0 L 166.8,156.5 Z" fill="none" stroke="#1f2937" stroke-width="4" stroke-linejoin="round"/><path d="M 207.0,160.0 L 206.8,163.5 L 206.1,167.0 L 204.9,170.3 L 203.4,173.5 L 201.4,176.4 L 199.1,179.1 L 196.4,181.4 L 193.5,183.4 L 190.3,184.9 L 187.0,186.1 L 183.5,186.8 L 180.0,187.0 L 176.5,186.8 L 173.0,186.1 L 169.7,184.9 L 166.5,183.4 L 163.6,181.4 L 160.9,179.1 L 158.6,176.4 L 156.6,173.5 L 155.1,170.3 L 153.9,167.0 L 153.2,163.5 L 153.0,160.0 L 153.2,156.5 L 153.9,153.0 L 155.1,149.7 L 156.6,146.5 L 158.6,143.6 L 160.9,140.9 L 163.6,138.6 L 166.5,136.6 L 169.7,135.1 L 173.0,133.9 L 176.5,133.2 L 180.0,133.0 L 183.5,133.2 L 187.0,133.9 L 190.3,135.1 L 193.5,136.6 L 196.4,138.6 L 199.1,140.9 L 201.4,143.6 L 203.4,146.5 L 204.9,149.7 L 206.1,153.0 L 206.8,156.5 Z" fill="none" stroke="#1f2937" stroke-width="4" stroke-linejoin="round"/><path d="M 247.0,160.0 L 246.8,163.5 L 246.1,167.0 L 244.9,170.3 L 243.4,173.5 L 241.4,176.4 L 239.1,179.1 L 236.4,181.4 L 233.5,183.4 L 230.3,184.9 L 227.0,186.1 L 223.5,186.8 L 220.0,187.0 L 216.5,186.8 L 213.0,186.1 L 209.7,184.9 L 206.5,183.4 L 203.6,181.4 L 200.9,179.1 L 198.6,176.4 L 196.6,173.5 L 195.1,170.3 L 193.9,167.0 L 193.2,163.5 L 193.0,160.0 L 193.2,156.5 L 193.9,153.0 L 195.1,149.7 L 196.6,146.5 L 198.6,143.6 L 200.9,140.9 L 203.6,138.6 L 206.5,136.6 L 209.7,135.1 L 213.0,133.9 L 216.5,133.2 L 220.0,133.0 L 223.5,133.2 L 227.0,133.9 L 230.3,135.1 L 233.5,136.6 L 236.4,138.6 L 239.1,140.9 L 241.4,143.6 L 243.4,146.5 L 244.9,149.7 L 246.1,153.0 L 246.8,156.5 Z" fill="none" stroke="#1f2937" stroke-width="4" stroke-linejoin="round"/><path d="M 287.0,160.0 L 286.8,163.5 L 286.1,167.0 L 284.9,170.3 L 283.4,173.5 L 281.4,176.4 L 279.1,179.1 L 276.4,181.4 L 273.5,183.4 L 270.3,184.9 L 267.0,186.1 L 263.5,186.8 L 260.0,187.0 L 256.5,186.8 L 253.0,186.1 L 249.7,184.9 L 246.5,183.4 L 243.6,181.4 L 240.9,179.1 L 238.6,176.4 L 236.6,173.5 L 235.1,170.3 L 233.9,167.0 L 233.2,163.5 L 233.0,160.0 L 233.2,156.5 L 233.9,153.0 L 235.1,149.7 L 236.6,146.5 L 238.6,143.6 L 240.9,140.9 L 243.6,138.6 L 246.5,136.6 L 249.7,135.1 L 253.0,133.9 L 256.5,133.2 L 260.0,133.0 L 263.5,133.2 L 267.0,133.9 L 270.3,135.1 L 273.5,136.6 L 276.4,138.6 L 279.1,140.9 L 281.4,143.6 L 283.4,146.5 L 284.9,149.7 L 286.1,153.0 L 286.8,156.5 Z" fill="none" stroke="#1f2937" stroke-width="4" stroke-linejoin="round"/><path d="M 187.0,200.0 L 186.8,203.5 L 186.1,207.0 L 184.9,210.3 L 183.4,213.5 L 181.4,216.4 L 179.1,219.1 L 176.4,221.4 L 173.5,223.4 L 170.3,224.9 L 167.0,226.1 L 163.5,226.8 L 160.0,227.0 L 156.5,226.8 L 153.0,226.1 L 149.7,224.9 L 146.5,223.4 L 143.6,221.4 L 140.9,219.1 L 138.6,216.4 L 136.6,213.5 L 135.1,210.3 L 133.9,207.0 L 133.2,203.5 L 133.0,200.0 L 133.2,196.5 L 133.9,193.0 L 135.1,189.7 L 136.6,186.5 L 138.6,183.6 L 140.9,180.9 L 143.6,178.6 L 146.5,176.6 L 149.7,175.1 L 153.0,173.9 L 156.5,173.2 L 160.0,173.0 L 163.5,173.2 L 167.0,173.9 L 170.3,175.1 L 173.5,176.6 L 176.4,178.6 L 179.1,180.9 L 181.4,183.6 L 183.4,186.5 L 184.9,189.7 L 186.1,193.0 L 186.8,196.5 Z" fill="none" stroke="#1f2937" stroke-width="4" stroke-linejoin="round"/><path d="M 227.0,200.0 L 226.8,203.5 L 226.1,207.0 L 224.9,210.3 L 223.4,213.5 L 221.4,216.4 L 219.1,219.1 L 216.4,221.4 L 213.5,223.4 L 210.3,224.9 L 207.0,226.1 L 203.5,226.8 L 200.0,227.0 L 196.5,226.8 L 193.0,226.1 L 189.7,224.9 L 186.5,223.4 L 183.6,221.4 L 180.9,219.1 L 178.6,216.4 L 176.6,213.5 L 175.1,210.3 L 173.9,207.0 L 173.2,203.5 L 173.0,200.0 L 173.2,196.5 L 173.9,193.0 L 175.1,189.7 L 176.6,186.5 L 178.6,183.6 L 180.9,180.9 L 183.6,178.6 L 186.5,176.6 L 189.7,175.1 L 193.0,173.9 L 196.5,173.2 L 200.0,173.0 L 203.5,173.2 L 207.0,173.9 L 210.3,175.1 L 213.5,176.6 L 216.4,178.6 L 219.1,180.9 L 221.4,183.6 L 223.4,186.5 L 224.9,189.7 L 226.1,193.0 L 226.8,196.5 Z" fill="none" stroke="#1f2937" stroke-width="4" stroke-linejoin="round"/><path d="M 267.0,200.0 L 266.8,203.5 L 266.1,207.0 L 264.9,210.3 L 263.4,213.5 L 261.4,216.4 L 259.1,219.1 L 256.4,221.4 L 253.5,223.4 L 250.3,224.9 L 247.0,226.1 L 243.5,226.8 L 240.0,227.0 L 236.5,226.8 L 233.0,226.1 L 229.7,224.9 L 226.5,223.4 L 223.6,221.4 L 220.9,219.1 L 218.6,216.4 L 216.6,213.5 L 215.1,210.3 L 213.9,207.0 L 213.2,203.5 L 213.0,200.0 L 213.2,196.5 L 213.9,193.0 L 215.1,189.7 L 216.6,186.5 L 218.6,183.6 L 220.9,180.9 L 223.6,178.6 L 226.5,176.6 L 229.7,175.1 L 233.0,173.9 L 236.5,173.2 L 240.0,173.0 L 243.5,173.2 L 247.0,173.9 L 250.3,175.1 L 253.5,176.6 L 256.4,178.6 L 259.1,180.9 L 261.4,183.6 L 263.4,186.5 L 264.9,189.7 L 266.1,193.0 L 266.8,196.5 Z" fill="none" stroke="#1f2937" stroke-width="4" stroke-linejoin="round"/><path d="M 202.0,238.0 L 201.8,241.5 L 201.1,245.0 L 199.9,248.3 L 198.4,251.5 L 196.4,254.4 L 194.1,257.1 L 191.4,259.4 L 188.5,261.4 L 185.3,262.9 L 182.0,264.1 L 178.5,264.8 L 175.0,265.0 L 171.5,264.8 L 168.0,264.1 L 164.7,262.9 L 161.5,261.4 L 158.6,259.4 L 155.9,257.1 L 153.6,254.4 L 151.6,251.5 L 150.1,248.3 L 148.9,245.0 L 148.2,241.5 L 148.0,238.0 L 148.2,234.5 L 148.9,231.0 L 150.1,227.7 L 151.6,224.5 L 153.6,221.6 L 155.9,218.9 L 158.6,216.6 L 161.5,214.6 L 164.7,213.1 L 168.0,211.9 L 171.5,211.2 L 175.0,211.0 L 178.5,211.2 L 182.0,211.9 L 185.3,213.1 L 188.5,214.6 L 191.4,216.6 L 194.1,218.9 L 196.4,221.6 L 198.4,224.5 L 199.9,227.7 L 201.1,231.0 L 201.8,234.5 Z" fill="none" stroke="#1f2937" stroke-width="4" stroke-linejoin="round"/><path d="M 252.0,238.0 L 251.8,241.5 L 251.1,245.0 L 249.9,248.3 L 248.4,251.5 L 246.4,254.4 L 244.1,257.1 L 241.4,259.4 L 238.5,261.4 L 235.3,262.9 L 232.0,264.1 L 228.5,264.8 L 225.0,265.0 L 221.5,264.8 L 218.0,264.1 L 214.7,262.9 L 211.5,261.4 L 208.6,259.4 L 205.9,257.1 L 203.6,254.4 L 201.6,251.5 L 200.1,248.3 L 198.9,245.0 L 198.2,241.5 L 198.0,238.0 L 198.2,234.5 L 198.9,231.0 L 200.1,227.7 L 201.6,224.5 L 203.6,221.6 L 205.9,218.9 L 208.6,216.6 L 211.5,214.6 L 214.7,213.1 L 218.0,211.9 L 221.5,211.2 L 225.0,211.0 L 228.5,211.2 L 232.0,211.9 L 235.3,213.1 L 238.5,214.6 L 241.4,216.6 L 244.1,218.9 L 246.4,221.6 L 248.4,224.5 L 249.9,227.7 L 251.1,231.0 L 251.8,234.5 Z" fill="none" stroke="#1f2937" stroke-width="4" stroke-linejoin="round"/><path d="M 227.0,272.0 L 226.8,275.5 L 226.1,279.0 L 224.9,282.3 L 223.4,285.5 L 221.4,288.4 L 219.1,291.1 L 216.4,293.4 L 213.5,295.4 L 210.3,296.9 L 207.0,298.1 L 203.5,298.8 L 200.0,299.0 L 196.5,298.8 L 193.0,298.1 L 189.7,296.9 L 186.5,295.4 L 183.6,293.4 L 180.9,291.1 L 178.6,288.4 L 176.6,285.5 L 175.1,282.3 L 173.9,279.0 L 173.2,275.5 L 173.0,272.0 L 173.2,268.5 L 173.9,265.0 L 175.1,261.7 L 176.6,258.5 L 178.6,255.6 L 180.9,252.9 L 183.6,250.6 L 186.5,248.6 L 189.7,247.1 L 193.0,245.9 L 196.5,245.2 L 200.0,245.0 L 203.5,245.2 L 207.0,245.9 L 210.3,247.1 L 213.5,248.6 L 216.4,250.6 L 219.1,252.9 L 221.4,255.6 L 223.4,258.5 L 224.9,261.7 L 226.1,265.0 L 226.8,268.5 Z" fill="none" stroke="#1f2937" stroke-width="4" stroke-linejoin="round"/><path d="M 208.0,120.0 L 207.9,123.1 L 207.7,126.2 L 207.4,129.2 L 206.9,132.0 L 206.3,134.6 L 205.7,137.0 L 204.9,139.0 L 204.0,140.8 L 203.1,142.2 L 202.1,143.2 L 201.0,143.8 L 200.0,144.0 L 199.0,143.8 L 197.9,143.2 L 196.9,142.2 L 196.0,140.8 L 195.1,139.0 L 194.3,137.0 L 193.7,134.6 L 193.1,132.0 L 192.6,129.2 L 192.3,126.2 L 192.1,123.1 L 192.0,120.0 L 192.1,116.9 L 192.3,113.8 L 192.6,110.8 L 193.1,108.0 L 193.7,105.4 L 194.3,103.0 L 195.1,101.0 L 196.0,99.2 L 196.9,97.8 L 197.9,96.8 L 199.0,96.2 L 200.0,96.0 L 201.0,96.2 L 202.1,96.8 L 203.1,97.8 L 204.0,99.2 L 204.9,101.0 L 205.7,103.0 L 206.3,105.4 L 206.9,108.0 L 207.4,110.8 L 207.7,113.8 L 207.9,116.9 Z" fill="none" stroke="#1f2937" stroke-width="4" stroke-linejoin="round"/>
  </g>
</svg>