<svg xmlns="http://www.w3.org/2000/svg" viewBox="0 0 400 400">
  <g class="fill-layer">
    <path id="body" class="fruit-region" data-region-id="body" data-target-color="#FB8C00" d="M 300.0,210.0 L 299.1,223.1 L 296.6,235.9 L 292.4,248.3 L 286.6,260.0 L 279.3,270.9 L 270.7,280.7 L 260.9,289.3 L 250.0,296.6 L 238.3,302.4 L 225.9,306.6 L 213.1,309.1 L 200.0,310.0 L 186.9,309.1 L 174.1,306.6 L 161.7,302.4 L 150.0,296.6 L 139.1,289.3 L 129.3,280.7 L 120.7,270.9 L 113.4,260.0 L 107.6,248.3 L 103.4,235.9 L 100.9,223.1 L 100.0,210.0 L 100.9,196.9 L 103.4,184.1 L 107.6,171.7 L 113.4,160.0 L 120.7,149.1 L 129.3,139.3 L 139.1,130.7 L 150.0,123.4 L 161.7,117.6 L 174.1,113.4 L 186.9,110.9 L 200.0,110.0 L 213.1,110.9 L 225.9,113.4 L 238.3,117.6 L 250.0,123.4 L 260.9,130.7 L 270.7,139.3 L 279.3,149.1 L 286.6,160.0 L 292.4,171.7 L 296.6,184.1 L 299.1,196.9 Z" fill="#FEEAD1"/><path id="stem" class="fruit-region" data-region-id="stem" data-target-color="#6D4C41" d="M 209.0,105.0 L 208.9,108.4 L 208.7,111.7 L 208.3,114.9 L 207.8,118.0 L 207.1,120.8 L 206.4,123.4 L 205.5,125.6 L 204.5,127.5 L 203.4,129.0 L 202.3,130.1 L 201.2,130.8 L 200.0,131.0 L 198.8,130.8 L 197.7,130.1 L 196.6,129.0 L 195.5,127.5 L 194.5,125.6 L 193.6,123.4 L 192.9,120.8 L 192.2,118.0 L 191.7,114.9 L 191.3,111.7 L 191.1,108.4 L 191.0,105.0 L 191.1,101.6 L 191.3,98.3 L 191.7,95.1 L 192.2,92.0 L 192.9,89.2 L 193.6,86.6 L 194.5,84.4 L 195.5,82.5 L 196.6,81.0 L 197.7,79.9 L 198.8,79.2 L 200.0,79.0 L 201.2,79.2 L 202.3,79.9 L 203.4,81.0 L 204.5,82.5 L 205.5,84.4 L 206.4,86.6 L 207.1,89.2 L 207.8,92.0 L 208.3,95.1 L 208.7,98.3 L 208.9,101.6 Z" fill="#E5DFDD"/><path id="leaf" class="fruit-region" data-region-id="leaf" data-target-color="#43A047" d="M 266.9,83.4 L 267.3,85.3 L 267.2,87.4 L 266.5,89.7 L 265.2,92.0 L 263.5,94.4 L 261.2,96.7 L 258.5,99.1 L 255.4,101.4 L 252.0,103.6 L 248.2,105.6 L 244.3,107.5 L 240.1,109.1 L 235.9,110.5 L 231.7,111.6 L 227.5,112.5 L 223.5,113.0 L 219.6,113.3 L 216.0,113.2 L 212.8,112.8 L 209.9,112.1 L 207.4,111.1 L 205.5,109.9 L 204.0,108.4 L 203.1,106.6 L 202.7,104.7 L 202.8,102.6 L 203.5,100.3 L 204.8,98.0 L 206.5,95.6 L 208.8,93.3 L 211.5,90.9 L 214.6,88.6 L 218.0,86.4 L 221.8,84.4 L 225.7,82.5 L 229.9,80.9 L 234.1,79.5 L 238.3,78.4 L 242.5,77.5 L 246.5,77.0 L 250.4,76.7 L 254.0,76.8 L 257.2,77.2 L 260.1,77.9 L 262.6,78.9 L 264.5,80.1 L 266.0,81.6 Z" fill="#DDEEDE"/>
  </g>
  <g class="line-art" pointer-events="none">
    <path d="M 300.0,210.0 L 299.1,223.1 L 296.6,235.9 L 292.4,248.3 L 286.6,260.0 L 279.3,270.9 L 270.7,280.7 L 260.9,289.3 L 250.0,296.6 L 238.3,302.4 L 225.9,306.6 L 213.1,309.1 L 200.0,310.0 L 186.9,309.1 L 174.1,306.6 L 161.7,302.4 L 150.0,296.6 L 139.1,289.3 L 129.3,280.7 L 120.7,270.9 L 113.4,260.0 L 107.6,248.3 L 103.4,235.9 L 100.9,223.1 L 100.0,210.0 L 100.9,196.9 L 103.4,184.1 L 107.6,171.7 L 113.4,160.0 L 120.7,149.1 L 129.3,139.3 L 139.1,130.7 L 150.0,123.4 L 161.7,117.6 L 174.1,113.4 L 186.9,110.9 L 200.0,110.0 L 213.1,110.9 L 225.9,113.4 L 238.3,117.6 L 250.0,123.4 L 260.9,130.7 L 270.7,139.3 L 279.3,149.1 L 286.6,160.0 L 292.4,171.7 L 296.6,184.1 L 299.1,196.9 Z" fill="none" stroke="#1f2937" stroke-width="4" stroke-linejoin="round"/><path d="M 209.0,105.0 L 208.9,108.4 L 208.7,111.7 L 208.3,114.9 L 207.8,118.0 L 207.1,120.8 L 206.4,123.4 L 205.5,125.6 L 204.5,127.5 L 203.4,129.0 L 202.3,130.1 L 201.2,130.8 L 200.0,131.0 L 198.8,130.8 L 197.7,130.1 L 196.6,129.0 L 195.5,127.5 L 194.5,125.6 L 193.6,123.4 L 192.9,120.8 L 192.2,118.0 L 191.7,114.9 L 191.3,111.7 L 191.1,108.4 L 191.0,105.0 L 191.1,101.6 L 191.3,98.3 L 191.7,95.1 L 192.2,92.0 L 192.9,89.2 L 193.6,86.6 L 194.5,84.4 L 195.5,82.5 L 196.6,81.0 L 197.7,79.9 L 198.8,79.2 L 200.0,79.0 L 201.2,79.2 L 202.3,79.9 L 203.4,81.0 L 204.5,82.5 L 205.5,84.4 L 206.4,86.6 L 207.1,89.2 L 207.8,92.0 L 208.3,95.1 L 208.7,98.3 L 208.9,101.6 Z" fill="none" stroke="#1f2937" stroke-width="4" stroke-linejoin="round"/><path d="M 266.9,83.4 L 267.3,85.3 L 267.2,87.4 L 266.5,89.7 L 265.2,92.0 L 263.5,94.4 L 261.2,96.7 L 258.5,99.1 L 255.4,101.4 L 252.0,103.6 L 248.2,105.6 L 244.3,107.5 L 240.1,109.1 L 235.9,110.5 L 231.7,111.6 L 227.5,112.5 L 223.5,113.0 L 219.6,113.3 L 216.0,113.2 L 212.8,112.8 L 209.9,112.1 L 207.4,111.1 L 205.5,109.9 L 204.0,108.4 L 203.1,106.6 L 202.7,104.7 L 202.8,102.6 L 203.5,100.3 L 204.8,98.0 L 206.5,95.6 L 208.8,93.3 L 211.5,90.9 L 214.6,88.6 L 218.0,86.4 L 221.8,84.4 L 225.7,82.5 L 229.9,80.9 L 234.1,79.5 L 238.3,78.4 L 242.5,77.5 L 246.5,77.0 L 250.4,76.7 L 254.0,76.8 L 257.2,77.2 L 260.1,77.9 L 262.6,78.9 L 264.5,80.1 L 266.0,81.6 Z" fill="none" stroke="#1f2937" stroke-width="4" stroke-linejoin="round"/>
  </g>
</svg>