<svg xmlns="http://www.w3.org/2000/svg" viewBox="0 0 400 400">
  <g class="fill-layer">
    <path id="body" class="fruit-region" data-region-id="body" data-target-color="#E53935" d="M 105.0,195.0 L 100.0,160.0 L 120.0,120.0 L 160.0,100.0 L 200.0,92.0 L 240.0,100.0 L 280.0,120.0 L 300.0,160.0 L 295.0,195.0 L 278.0,250.0 L 245.0,300.0 L 200.0,345.0 L 155.0,300.0 L 122.0,250.0 Z" fill="#FADBDB"/><path id="leaves-0" class="fruit-region" data-region-id="leaves" data-target-color="#43A047" d="M 194.8,55.5 L 196.5,55.4 L 198.3,55.9 L 200.1,56.8 L 201.9,58.3 L 203.7,60.2 L 205.4,62.5 L 207.0,65.2 L 208.5,68.3 L 209.8,71.6 L 211.0,75.2 L 212.0,78.9 L 212.8,82.7 L 213.4,86.6 L 213.7,90.5 L 213.8,94.2 L 213.7,97.8 L 213.3,101.2 L 212.7,104.3 L 211.9,107.1 L 210.9,109.5 L 209.7,111.4 L 208.3,113.0 L 206.8,114.0 L 205.2,114.5 L 203.5,114.6 L 201.7,114.1 L 199.9,113.2 L 198.1,111.7 L 196.3,109.8 L 194.6,107.5 L 193.0,104.8 L 191.5,101.7 L 190.2,98.4 L 189.0,94.8 L 188.0,91.1 L 187.2,87.3 L 186.6,83.4 L 186.3,79.5 L 186.2,75.8 L 186.3,72.2 L 186.7,68.8 L 187.3,65.7 L 188.1,62.9 L 189.1,60.5 L 190.3,58.6 L 191.7,57.0 L 193.2,56.0 Z" fill="#DDEEDE"/><path id="leaves-1" class="fruit-region" data-region-id="leaves" data-target-color="#43A047" d="M 217.2,60.4 L 218.5,61.6 L 219.4,63.2 L 220.0,65.1 L 220.2,67.4 L 220.1,70.0 L 219.7,72.9 L 218.9,76.0 L 217.8,79.2 L 216.4,82.5 L 214.7,85.8 L 212.8,89.2 L 210.6,92.5 L 208.3,95.6 L 205.8,98.6 L 203.3,101.3 L 200.6,103.7 L 198.0,105.9 L 195.4,107.6 L 192.8,109.0 L 190.4,110.0 L 188.2,110.6 L 186.1,110.7 L 184.3,110.3 L 182.8,109.6 L 181.5,108.4 L 180.6,106.8 L 180.0,104.9 L 179.8,102.6 L 179.9,100.0 L 180.3,97.1 L 181.1,94.0 L 182.2,90.8 L 183.6,87.5 L 185.3,84.2 L 187.2,80.8 L 189.4,77.5 L 191.7,74.4 L 194.2,71.4 L 196.7,68.7 L 199.4,66.3 L 202.0,64.1 L 204.6,62.4 L 207.2,61.0 L 209.6,60.0 L 211.8,59.4 L 213.9,59.3 L 215.7,59.7 Z" fill="#DDEEDE"/><path id="leaves-2" class="fruit-region" data-region-id="leaves" data-target-color="#43A047" d="M 229.0,77.2 L 229.2,78.9 L 228.9,80.8 L 228.1,82.6 L 226.8,84.6 L 225.0,86.5 L 222.9,88.4 L 220.3,90.2 L 217.4,92.0 L 214.2,93.6 L 210.8,95.1 L 207.1,96.4 L 203.4,97.6 L 199.6,98.5 L 195.8,99.1 L 192.0,99.6 L 188.4,99.8 L 185.0,99.7 L 181.9,99.4 L 179.1,98.8 L 176.6,98.0 L 174.5,97.0 L 172.9,95.8 L 171.7,94.3 L 171.0,92.8 L 170.8,91.1 L 171.1,89.2 L 171.9,87.4 L 173.2,85.4 L 175.0,83.5 L 177.1,81.6 L 179.7,79.8 L 182.6,78.0 L 185.8,76.4 L 189.2,74.9 L 192.9,73.6 L 196.6,72.4 L 200.4,71.5 L 204.2,70.9 L 208.0,70.4 L 211.6,70.2 L 215.0,70.3 L 218.1,70.6 L 220.9,71.2 L 223.4,72.0 L 225.5,73.0 L 227.1,74.2 L 228.3,75.7 Z" fill="#DDEEDE"/><path id="leaves-3" class="fruit-region" data-region-id="leaves" data-target-color="#43A047" d="M 229.0,92.8 L 228.3,94.3 L 227.1,95.8 L 225.5,97.0 L 223.4,98.0 L 220.9,98.8 L 218.1,99.4 L 215.0,99.7 L 211.6,99.8 L 208.0,99.6 L 204.2,99.1 L 200.4,98.5 L 196.6,97.6 L 192.9,96.4 L 189.2,95.1 L 185.8,93.6 L 182.6,92.0 L 179.7,90.2 L 177.1,88.4 L 175.0,86.5 L 173.2,84.6 L 171.9,82.6 L 171.1,80.8 L 170.8,78.9 L 171.0,77.2 L 171.7,75.7 L 172.9,74.2 L 174.5,73.0 L 176.6,72.0 L 179.1,71.2 L 181.9,70.6 L 185.0,70.3 L 188.4,70.2 L 192.0,70.4 L 195.8,70.9 L 199.6,71.5 L 203.4,72.4 L 207.1,73.6 L 210.8,74.9 L 214.2,76.4 L 217.4,78.0 L 220.3,79.8 L 222.9,81.6 L 225.0,83.5 L 226.8,85.4 L 228.1,87.4 L 228.9,89.2 L 229.2,91.1 Z" fill="#DDEEDE"/><path id="leaves-4" class="fruit-region" data-region-id="leaves" data-target-color="#43A047" d="M 217.2,109.6 L 215.7,110.3 L 213.9,110.7 L 211.8,110.6 L 209.6,110.0 L 207.2,109.0 L 204.6,107.6 L 202.0,105.9 L 199.4,103.7 L 196.7,101.3 L 194.2,98.6 L 191.7,95.6 L 189.4,92.5 L 187.2,89.2 L 185.3,85.8 L 183.6,82.5 L 182.2,79.2 L 181.1,76.0 L 180.3,72.9 L 179.9,70.0 L 179.8,67.4 L 180.0,65.1 L 180.6,63.2 L 181.5,61.6 L 182.8,60.4 L 184.3,59.7 L 186.1,59.3 L 188.2,59.4 L 190.4,60.0 L 192.8,61.0 L 195.4,62.4 L 198.0,64.1 L 200.6,66.3 L 203.3,68.7 L 205.8,71.4 L 208.3,74.4 L 210.6,77.5 L 212.8,80.8 L 214.7,84.2 L 216.4,87.5 L 217.8,90.8 L 218.9,94.0 L 219.7,97.1 L 220.1,100.0 L 220.2,102.6 L 220.0,104.9 L 219.4,106.8 L 218.5,108.4 Z" fill="#DDEEDE"/><path id="leaves-5" class="fruit-region" data-region-id="leaves" data-target-color="#43A047" d="M 194.8,114.5 L 193.2,114.0 L 191.7,113.0 L 190.3,111.4 L 189.1,109.5 L 188.1,107.1 L 187.3,104.3 L 186.7,101.2 L 186.3,97.8 L 186.2,94.2 L 186.3,90.5 L 186.6,86.6 L 187.2,82.7 L 188.0,78.9 L 189.0,75.2 L 190.2,71.6 L 191.5,68.3 L 193.0,65.2 L 194.6,62.5 L 196.3,60.2 L 198.1,58.3 L 199.9,56.8 L 201.7,55.9 L 203.5,55.4 L 205.2,55.5 L 206.8,56.0 L 208.3,57.0 L 209.7,58.6 L 210.9,60.5 L 211.9,62.9 L 212.7,65.7 L 213.3,68.8 L 213.7,72.2 L 213.8,75.8 L 213.7,79.5 L 213.4,83.4 L 212.8,87.3 L 212.0,91.1 L 211.0,94.8 L 209.8,98.4 L 208.5,101.7 L 207.0,104.8 L 205.4,107.5 L 203.7,109.8 L 201.9,111.7 L 200.1,113.2 L 198.3,114.1 L 196.5,114.6 Z" fill="#DDEEDE"/>
  </g>
  <g class="line-art" pointer-events="none">
    <path d="M 105.0,195.0 L 100.0,160.0 L 120.0,120.0 L 160.0,100.0 L 200.0,92.0 L 240.0,100.0 L 280.0,120.0 L 300.0,160.0 L 295.0,195.0 L 278.0,250.0 L 245.0,300.0 L 200.0,345.0 L 155.0,300.0 L 122.0,250.0 Z" fill="none" stroke="#1f2937" stroke-width="4" stroke-linejoin="round"/><path d="M 194.8,55.5 L 196.5,55.4 L 198.3,55.9 L 200.1,56.8 L 201.9,58.3 L 203.7,60.2 L 205.4,62.5 L 207.0,65.2 L 208.5,68.3 L 209.8,71.6 L 211.0,75.2 L 212.0,78.9 L 212.8,82.7 L 213.4,86.6 L 213.7,90.5 L 213.8,94.2 L 213.7,97.8 L 213.3,101.2 L 212.7,104.3 L 211.9,107.1 L 210.9,109.5 L 209.7,111.4 L 208.3,113.0 L 206.8,114.0 L 205.2,114.5 L 203.5,114.6 L 201.7,114.1 L 199.9,113.2 L 198.1,111.7 L 196.3,109.8 L 194.6,107.5 L 193.0,104.8 L 191.5,101.7 L 190.2,98.4 L 189.0,94.8 L 188.0,91.1 L 187.2,87.3 L 186.6,83.4 L 186.3,79.5 L 186.2,75.8 L 186.3,72.2 L 186.7,68.8 L 187.3,65.7 L 188.1,62.9 L 189.1,60.5 L 190.3,58.6 L 191.7,57.0 L 193.2,56.0 Z" fill="none" stroke="#1f2937" stroke-width="4" stroke-linejoin="round"/><path d="M 217.2,60.4 L 218.5,61.6 L 219.4,63.2 L 220.0,65.1 L 220.2,67.4 L 220.1,70.0 L 219.7,72.9 L 218.9,76.0 L 217.8,79.2 L 216.4,82.5 L 214.7,85.8 L 212.8,89.2 L 210.6,92.5 L 208.3,95.6 L 205.8,98.6 L 203.3,101.3 L 200.6,103.7 L 198.0,105.9 L 195.4,107.6 L 192.8,109.0 L 190.4,110.0 L 188.2,110.6 L 186.1,110.7 L 184.3,110.3 L 182.8,109.6 L 181.5,108.4 L 180.6,106.8 L 180.0,104.9 L 179.8,102.6 L 179.9,100.0 L 180.3,97.1 L 181.1,94.0 L 182.2,90.8 L 183.6,87.5 L 185.3,84.2 L 187.2,80.8 L 189.4,77.5 L 191.7,74.4 L 194.2,71.4 L 196.7,68.7 L 199.4,66.3 L 202.0,64.1 L 204.6,62.4 L 207.2,61.0 L 209.6,60.0 L 211.8,59.4 L 213.9,59.3 L 215.7,59.7 Z" fill="none" stroke="#1f2937" stroke-width="4" stroke-linejoin="round"/><path d="M 229.0,77.2 L 229.2,78.9 L 228.9,80.8 L 228.1,82.6 L 226.8,84.6 L 225.0,86.5 L 222.9,88.4 L 220.3,90.2 L 217.4,92.0 L 214.2,93.6 L 210.8,95.1 L 207.1,96.4 L 203.4,97.6 L 199.6,98.5 L 195.8,99.1 L 192.0,99.6 L 188.4,99.8 L 185.0,99.7 L 181.9,99.4 L 179.1,98.8 L 176.6,98.0 L 174.5,97.0 L 172.9,95.8 L 171.7,94.3 L 171.0,92.8 L 170.8,91.1 L 171.1,89.2 L 171.9,87.4 L 173.2,85.4 L 175.0,83.5 L 177.1,81.6 L 179.7,79.8 L 182.6,78.0 L 185.8,76.4 L 189.2,74.9 L 192.9,73.6 L 196.6,72.4 L 200.4,71.5 L 204.2,70.9 L 208.0,70.4 L 211.6,70.2 L 215.0,70.3 L 218.1,70.6 L 220.9,71.2 L 223.4,72.0 L 225.5,73.0 L 227.1,74.2 L 228.3,75.7 Z" fill="none" stroke="#1f2937" stroke-width="4" stroke-linejoin="round"/><path d="M 229.0,92.8 L 228.3,94.3 L 227.1,95.8 L 225.5,97.0 L 223.4,98.0 L 220.9,98.8 L 218.1,99.4 L 215.0,99.7 L 211.6,99.8 L 208.0,99.6 L 204.2,99.1 L 200.4,98.5 L 196.6,97.6 L 192.9,96.4 L 189.2,95.1 L 185.8,93.6 L 182.6,92.0 L 179.7,90.2 L 177.1,88.4 L 175.0,86.5 L 173.2,84.6 L 171.9,82.6 L 171.1,80.8 L 170.8,78.9 L 171.0,77.2 L 171.7,75.7 L 172.9,74.2 L 174.5,73.0 L 176.6,72.0 L 179.1,71.2 L 181.9,70.6 L 185.0,70.3 L 188.4,70.2 L 192.0,70.4 L 195.8,70.9 L 199.6,71.5 L 203.4,72.4 L 207.1,73.6 L 210.8,74.9 L 214.2,76.4 L 217.4,78.0 L 220.3,79.8 L 222.9,81.6 L 225.0,83.5 L 226.8,85.4 L 228.1,87.4 L 228.9,89.2 L 229.2,91.1 Z" fill="none" stroke="#1f2937" stroke-width="4" stroke-linejoin="round"/><path d="M 217.2,109.6 L 215.7,110.3 L 213.9,110.7 L 211.8,110.6 L 209.6,110.0 L 207.2,109.0 L 204.6,107.6 L 202.0,105.9 L 199.4,103.7 L 196.7,101.3 L 194.2,98.6 L 191.7,95.6 L 189.4,92.5 L 187.2,89.2 L 185.3,85.8 L 183.6,82.5 L 182.2,79.2 L 181.1,76.0 L 180.3,72.9 L 179.9,70.0 L 179.8,67.4 L 180.0,65.1 L 180.6,63.2 L 181.5,61.6 L 182.8,60.4 L 184.3,59.7 L 186.1,59.3 L 188.2,59.4 L 190.4,60.0 L 192.8,61.0 L 195.4,62.4 L 198.0,64.1 L 200.6,66.3 L 203.3,68.7 L 205.8,71.4 L 208.3,74.4 L 210.6,77.5 L 212.8,80.8 L 214.7,84.2 L 216.4,87.5 L 217.8,90.8 L 218.9,94.0 L 219.7,97.1 L 220.1,100.0 L 220.2,102.6 L 220.0,104.9 L 219.4,106.8 L 218.5,108.4 Z" fill="none" stroke="#1f2937" stroke-width="4" stroke-linejoin="round"/><path d="M 194.8,114.5 L 193.2,114.0 L 191.7,113.0 L 190.3,111.4 L 189.1,109.5 L 188.1,107.1 L 187.3,104.3 L 186.7,101.2 L 186.3,97.8 L 186.2,94.2 L 186.3,90.5 L 186.6,86.6 L 187.2,82.7 L 188.0,78.9 L 189.0,75.2 L 190.2,71.6 L 191.5,68.3 L 193.0,65.2 L 194.6,62.5 L 196.3,60.2 L 198.1,58.3 L 199.9,56.8 L 201.7,55.9 L 203.5,55.4 L 205.2,55.5 L 206.8,56.0 L 208.3,57.0 L 209.7,58.6 L 210.9,60.5 L 211.9,62.9 L 212.7,65.7 L 213.3,68.8 L 213.7,72.2 L 213.8,75.8 L 213.7,79.5 L 213.4,83.4 L 212.8,87.3 L 212.0,91.1 L 211.0,94.8 L 209.8,98.4 L 208.5,101.7 L 207.0,104.8 L 205.4,107.5 L 203.7,109.8 L 201.9,111.7 L 200.1,113.2 L 198.3,114.1 L 196.5,114.6 Z" fill="none" stroke="#1f2937" stroke-width="4" stroke-linejoin="round"/><path d="M 165.0,180.0 L 165.0,180.7 L 164.8,181.3 L 164.6,181.9 L 164.3,182.5 L 164.0,183.0 L 163.5,183.5 L 163.0,184.0 L 162.5,184.3 L 161.9,184.6 L 161.3,184.8 L 160.7,185.0 L 160.0,185.0 L 159.3,185.0 L 158.7,184.8 L 158.1,184.6 L 157.5,184.3 L 157.0,184.0 L 156.5,183.5 L 156.0,183.0 L 155.7,182.5 L 155.4,181.9 L 155.2,181.3 L 155.0,180.7 L 155.0,180.0 L 155.0,179.3 L 155.2,178.7 L 155.4,178.1 L 155.7,177.5 L 156.0,177.0 L 156.5,176.5 L 157.0,176.0 L 157.5,175.7 L 158.1,175.4 L 158.7,175.2 L 159.3,175.0 L 160.0,175.0 L 160.7,175.0 L 161.3,175.2 L 161.9,175.4 L 162.5,175.7 L 163.0,176.0 L 163.5,176.5 L 164.0,177.0 L 164.3,177.5 L 164.6,178.1 L 164.8,178.7 L 165.0,179.3 Z" fill="#FFF176"/><path d="M 215.0,170.0 L 215.0,170.7 L 214.8,171.3 L 214.6,171.9 L 214.3,172.5 L 214.0,173.0 L 213.5,173.5 L 213.0,174.0 L 212.5,174.3 L 211.9,174.6 L 211.3,174.8 L 210.7,175.0 L 210.0,175.0 L 209.3,175.0 L 208.7,174.8 L 208.1,174.6 L 207.5,174.3 L 207.0,174.0 L 206.5,173.5 L 206.0,173.0 L 205.7,172.5 L 205.4,171.9 L 205.2,171.3 L 205.0,170.7 L 205.0,170.0 L 205.0,169.3 L 205.2,168.7 L 205.4,168.1 L 205.7,167.5 L 206.0,167.0 L 206.5,166.5 L 207.0,166.0 L 207.5,165.7 L 208.1,165.4 L 208.7,165.2 L 209.3,165.0 L 210.0,165.0 L 210.7,165.0 L 211.3,165.2 L 211.9,165.4 L 212.5,165.7 L 213.0,166.0 L 213.5,166.5 L 214.0,167.0 L 214.3,167.5 L 214.6,168.1 L 214.8,168.7 L 215.0,169.3 Z" fill="#FFF176"/><path d="M 250.0,195.0 L 250.0,195.7 L 249.8,196.3 L 249.6,196.9 L 249.3,197.5 L 249.0,198.0 L 248.5,198.5 L 248.0,199.0 L 247.5,199.3 L 246.9,199.6 L 246.3,199.8 L 245.7,200.0 L 245.0,200.0 L 244.3,200.0 L 243.7,199.8 L 243.1,199.6 L 242.5,199.3 L 242.0,199.0 L 241.5,198.5 L 241.0,198.0 L 240.7,197.5 L 240.4,196.9 L 240.2,196.3 L 240.0,195.7 L 240.0,195.0 L 240.0,194.3 L 240.2,193.7 L 240.4,193.1 L 240.7,192.5 L 241.0,192.0 L 241.5,191.5 L 242.0,191.0 L 242.5,190.7 L 243.1,190.4 L 243.7,190.2 L 244.3,190.0 L 245.0,190.0 L 245.7,190.0 L 246.3,190.2 L 246.9,190.4 L 247.5,190.7 L 248.0,191.0 L 248.5,191.5 L 249.0,192.0 L 249.3,192.5 L 249.6,193.1 L 249.8,193.7 L 250.0,194.3 Z" fill="#FFF176"/><path d="M 185.0,230.0 L 185.0,230.7 L 184.8,231.3 L 184.6,231.9 L 184.3,232.5 L 184.0,233.0 L 183.5,233.5 L 183.0,234.0 L 182.5,234.3 L 181.9,234.6 L 181.3,234.8 L 180.7,235.0 L 180.0,235.0 L 179.3,235.0 L 178.7,234.8 L 178.1,234.6 L 177.5,234.3 L 177.0,234.0 L 176.5,233.5 L 176.0,233.0 L 175.7,232.5 L 175.4,231.9 L 175.2,231.3 L 175.0,230.7 L 175.0,230.0 L 175.0,229.3 L 175.2,228.7 L 175.4,228.1 L 175.7,227.5 L 176.0,227.0 L 176.5,226.5 L 177.0,226.0 L 177.5,225.7 L 178.1,225.4 L 178.7,225.2 L 179.3,225.0 L 180.0,225.0 L 180.7,225.0 L 181.3,225.2 L 181.9,225.4 L 182.5,225.7 L 183.0,226.0 L 183.5,226.5 L 184.0,227.0 L 184.3,227.5 L 184.6,228.1 L 184.8,228.7 L 185.0,229.3 Z" fill="#FFF176"/><path d="M 230.0,245.0 L 230.0,245.7 L 229.8,246.3 L 229.6,246.9 L 229.3,247.5 L 229.0,248.0 L 228.5,248.5 L 228.0,249.0 L 227.5,249.3 L 226.9,249.6 L 226.3,249.8 L 225.7,250.0 L 225.0,250.0 L 224.3,250.0 L 223.7,249.8 L 223.1,249.6 L 222.5,249.3 L 222.0,249.0 L 221.5,248.5 L 221.0,248.0 L 220.7,247.5 L 220.4,246.9 L 220.2,246.3 L 220.0,245.7 L 220.0,245.0 L 220.0,244.3 L 220.2,243.7 L 220.4,243.1 L 220.7,242.5 L 221.0,242.0 L 221.5,241.5 L 222.0,241.0 L 222.5,240.7 L 223.1,240.4 L 223.7,240.2 L 224.3,240.0 L 225.0,240.0 L 225.7,240.0 L 226.3,240.2 L 226.9,240.4 L 227.5,240.7 L 228.0,241.0 L 228.5,241.5 L 229.0,242.0 L 229.3,242.5 L 229.6,243.1 L 229.8,243.7 L 230.0,244.3 Z" fill="#FFF176"/><path d="M 205.0,285.0 L 205.0,285.7 L 204.8,286.3 L 204.6,286.9 L 204.3,287.5 L 204.0,288.0 L 203.5,288.5 L 203.0,289.0 L 202.5,289.3 L 201.9,289.6 L 201.3,289.8 L 200.7,290.0 L 200.0,290.0 L 199.3,290.0 L 198.7,289.8 L 198.1,289.6 L 197.5,289.3 L 197.0,289.0 L 196.5,288.5 L 196.0,288.0 L 195.7,287.5 L 195.4,286.9 L 195.2,286.3 L 195.0,285.7 L 195.0,285.0 L 195.0,284.3 L 195.2,283.7 L 195.4,283.1 L 195.7,282.5 L 196.0,282.0 L 196.5,281.5 L 197.0,281.0 L 197.5,280.7 L 198.1,280.4 L 198.7,280.2 L 199.3,280.0 L 200.0,280.0 L 200.7,280.0 L 201.3,280.2 L 201.9,280.4 L 202.5,280.7 L 203.0,281.0 L 203.5,281.5 L 204.0,282.0 L 204.3,282.5 L 204.6,283.1 L 204.8,283.7 L 205.0,284.3 Z" fill="#FFF176"/><path d="M 160.0,260.0 L 160.0,260.7 L 159.8,261.3 L 159.6,261.9 L 159.3,262.5 L 159.0,263.0 L 158.5,263.5 L 158.0,264.0 L 157.5,264.3 L 156.9,264.6 L 156.3,264.8 L 155.7,265.0 L 155.0,265.0 L 154.3,265.0 L 153.7,264.8 L 153.1,264.6 L 152.5,264.3 L 152.0,264.0 L 151.5,263.5 L 151.0,263.0 L 150.7,262.5 L 150.4,261.9 L 150.2,261.3 L 150.0,260.7 L 150.0,260.0 L 150.0,259.3 L 150.2,258.7 L 150.4,258.1 L 150.7,257.5 L 151.0,257.0 L 151.5,256.5 L 152.0,256.0 L 152.5,255.7 L 153.1,255.4 L 153.7,255.2 L 154.3,255.0 L 155.0,255.0 L 155.7,255.0 L 156.3,255.2 L 156.9,255.4 L 157.5,255.7 L 158.0,256.0 L 158.5,256.5 L 159.0,257.0 L 159.3,257.5 L 159.6,258.1 L 159.8,258.7 L 160.0,259.3 Z" fill="#FFF176"/><path d="M 255.0,240.0 L 255.0,240.7 L 254.8,241.3 L 254.6,241.9 L 254.3,242.5 L 254.0,243.0 L 253.5,243.5 L 253.0,244.0 L 252.5,244.3 L 251.9,244.6 L 251.3,244.8 L 250.7,245.0 L 250.0,245.0 L 249.3,245.0 L 248.7,244.8 L 248.1,244.6 L 247.5,244.3 L 247.0,244.0 L 246.5,243.5 L 246.0,243.0 L 245.7,242.5 L 245.4,241.9 L 245.2,241.3 L 245.0,240.7 L 245.0,240.0 L 245.0,239.3 L 245.2,238.7 L 245.4,238.1 L 245.7,237.5 L 246.0,237.0 L 246.5,236.5 L 247.0,236.0 L 247.5,235.7 L 248.1,235.4 L 248.7,235.2 L 249.3,235.0 L 250.0,235.0 L 250.7,235.0 L 251.3,235.2 L 251.9,235.4 L 252.5,235.7 L 253.0,236.0 L 253.5,236.5 L 254.0,237.0 L 254.3,237.5 L 254.6,238.1 L 254.8,238.7 L 255.0,239.3 Z" fill="#FFF176"/>
  </g>
</svg>