<svg xmlns="http://www.w3.org/2000/svg" viewBox="0 0 400 400">
  <g class="fill-layer">
    <path id="rind" class="fruit-region" data-region-id="rind" data-target-color="#2E7D32" d="M 200.0,340.0 L 21.5,275.0 L 27.8,259.7 L 35.5,245.0 L 44.4,231.0 L 54.5,217.9 L 65.6,205.6 L 77.9,194.5 L 91.0,184.4 L 105.0,175.5 L 119.7,167.8 L 135.0,161.5 L 150.8,156.5 L 167.0,152.9 L 183.4,150.7 L 200.0,150.0 L 216.6,150.7 L 233.0,152.9 L 249.2,156.5 L 265.0,161.5 L 280.3,167.8 L 295.0,175.5 L 309.0,184.4 L 322.1,194.5 L 334.4,205.6 L 345.5,217.9 L 355.6,231.0 L 364.5,245.0 L 372.2,259.7 L 378.5,275.0 Z" fill="#D9E8DA"/><path id="white_ring" class="fruit-region" data-region-id="white_ring" data-target-color="#F1F8E9" d="M 200.0,340.0 L 42.1,282.5 L 47.7,269.0 L 54.5,256.0 L 62.4,243.6 L 71.3,232.0 L 81.2,221.2 L 92.0,211.3 L 103.6,202.4 L 116.0,194.5 L 129.0,187.7 L 142.5,182.1 L 156.5,177.7 L 170.8,174.6 L 185.4,172.6 L 200.0,172.0 L 214.6,172.6 L 229.2,174.6 L 243.5,177.7 L 257.5,182.1 L 271.0,187.7 L 284.0,194.5 L 296.4,202.4 L 308.0,211.3 L 318.8,221.2 L 328.7,232.0 L 337.6,243.6 L 345.5,256.0 L 352.3,269.0 L 357.9,282.5 Z" fill="#FCFEFB"/><path id="flesh" class="fruit-region" data-region-id="flesh" data-target-color="#E53935" d="M 200.0,340.0 L 65.6,291.1 L 70.4,279.6 L 76.2,268.5 L 82.9,258.0 L 90.5,248.1 L 98.9,238.9 L 108.1,230.5 L 118.0,222.9 L 128.5,216.2 L 139.6,210.4 L 151.1,205.6 L 163.0,201.9 L 175.2,199.2 L 187.5,197.5 L 200.0,197.0 L 212.5,197.5 L 224.8,199.2 L 237.0,201.9 L 248.9,205.6 L 260.4,210.4 L 271.5,216.2 L 282.0,222.9 L 291.9,230.5 L 301.1,238.9 L 309.5,248.1 L 317.1,258.0 L 323.8,268.5 L 329.6,279.6 L 334.4,291.1 Z" fill="#FADBDB"/>
  </g>
  <g class="line-art" pointer-events="none">
    <path d="M 200.0,340.0 L 21.5,275.0 L 27.8,259.7 L 35.5,245.0 L 44.4,231.0 L 54.5,217.9 L 65.6,205.6 L 77.9,194.5 L 91.0,184.4 L 105.0,175.5 L 119.7,167.8 L 135.0,161.5 L 150.8,156.5 L 167.0,152.9 L 183.4,150.7 L 200.0,150.0 L 216.6,150.7 L 233.0,152.9 L 249.2,156.5 L 265.0,161.5 L 280.3,167.8 L 295.0,175.5 L 309.0,184.4 L 322.1,194.5 L 334.4,205.6 L 345.5,217.9 L 355.6,231.0 L 364.5,245.0 L 372.2,259.7 L 378.5,275.0 Z" fill="none" stroke="#1f2937" stroke-width="4" stroke-linejoin="round"/><path d="M 200.0,340.0 L 42.1,282.5 L 47.7,269.0 L 54.5,256.0 L 62.4,243.6 L 71.3,232.0 L 81.2,221.2 L 92.0,211.3 L 103.6,202.4 L 116.0,194.5 L 129.0,187.7 L 142.5,182.1 L 156.5,177.7 L 170.8,174.6 L 185.4,172.6 L 200.0,172.0 L 214.6,172.6 L 229.2,174.6 L 243.5,177.7 L 257.5,182.1 L 271.0,187.7 L 284.0,194.5 L 296.4,202.4 L 308.0,211.3 L 318.8,221.2 L 328.7,232.0 L 337.6,243.6 L 345.5,256.0 L 352.3,269.0 L 357.9,282.5 Z" fill="none" stroke="#1f2937" stroke-width="4" stroke-linejoin="round"/><path d="M 200.0,340.0 L 65.6,291.1 L 70.4,279.6 L 76.2,268.5 L 82.9,258.0 L 90.5,248.1 L 98.9,238.9 L 108.1,230.5 L 118.0,222.9 L 128.5,216.2 L 139.6,210.4 L 151.1,205.6 L 163.0,201.9 L 175.2,199.2 L 187.5,197.5 L 200.0,197.0 L 212.5,197.5 L 224.8,199.2 L 237.0,201.9 L 248.9,205.6 L 260.4,210.4 L 271.5,216.2 L 282.0,222.9 L 291.9,230.5 L 301.1,238.9 L 309.5,248.1 L 317.1,258.0 L 323.8,268.5 L 329.6,279.6 L 334.4,291.1 Z" fill="none" stroke="#1f2937" stroke-width="4" stroke-linejoin="round"/><path d="M 175.0,260.0 L 175.0,260.7 L 174.8,261.3 L 174.6,261.9 L 174.3,262.5 L 174.0,263.0 L 173.5,263.5 L 173.0,264.0 L 172.5,264.3 L 171.9,264.6 L 171.3,264.8 L 170.7,265.0 L 170.0,265.0 L 169.3,265.0 L 168.7,264.8 L 168.1,264.6 L 167.5,264.3 L 167.0,264.0 L 166.5,263.5 L 166.0,263.0 L 165.7,262.5 L 165.4,261.9 L 165.2,261.3 L 165.0,260.7 L 165.0,260.0 L 165.0,259.3 L 165.2,258.7 L 165.4,258.1 L 165.7,257.5 L 166.0,257.0 L 166.5,256.5 L 167.0,256.0 L 167.5,255.7 L 168.1,255.4 L 168.7,255.2 L 169.3,255.0 L 170.0,255.0 L 170.7,255.0 L 171.3,255.2 L 171.9,255.4 L 172.5,255.7 L 173.0,256.0 L 173.5,256.5 L 174.0,257.0 L 174.3,257.5 L 174.6,258.1 L 174.8,258.7 L 175.0,259.3 Z" fill="#1f2937"/><path d="M 235.0,255.0 L 235.0,255.7 L 234.8,256.3 L 234.6,256.9 L 234.3,257.5 L 234.0,258.0 L 233.5,258.5 L 233.0,259.0 L 232.5,259.3 L 231.9,259.6 L 231.3,259.8 L 230.7,260.0 L 230.0,260.0 L 229.3,260.0 L 228.7,259.8 L 228.1,259.6 L 227.5,259.3 L 227.0,259.0 L 226.5,258.5 L 226.0,258.0 L 225.7,257.5 L 225.4,256.9 L 225.2,256.3 L 225.0,255.7 L 225.0,255.0 L 225.0,254.3 L 225.2,253.7 L 225.4,253.1 L 225.7,252.5 L 226.0,252.0 L 226.5,251.5 L 227.0,251.0 L 227.5,250.7 L 228.1,250.4 L 228.7,250.2 L 229.3,250.0 L 230.0,250.0 L 230.7,250.0 L 231.3,250.2 L 231.9,250.4 L 232.5,250.7 L 233.0,251.0 L 233.5,251.5 L 234.0,252.0 L 234.3,252.5 L 234.6,253.1 L 234.8,253.7 L 235.0,254.3 Z" fill="#1f2937"/><path d="M 205.0,290.0 L 205.0,290.7 L 204.8,291.3 L 204.6,291.9 L 204.3,292.5 L 204.0,293.0 L 203.5,293.5 L 203.0,294.0 L 202.5,294.3 L 201.9,294.6 L 201.3,294.8 L 200.7,295.0 L 200.0,295.0 L 199.3,295.0 L 198.7,294.8 L 198.1,294.6 L 197.5,294.3 L 197.0,294.0 L 196.5,293.5 L 196.0,293.0 L 195.7,292.5 L 195.4,291.9 L 195.2,291.3 L 195.0,290.7 L 195.0,290.0 L 195.0,289.3 L 195.2,288.7 L 195.4,288.1 L 195.7,287.5 L 196.0,287.0 L 196.5,286.5 L 197.0,286.0 L 197.5,285.7 L 198.1,285.4 L 198.7,285.2 L 199.3,285.0 L 200.0,285.0 L 200.7,285.0 L 201.3,285.2 L 201.9,285.4 L 202.5,285.7 L 203.0,286.0 L 203.5,286.5 L 204.0,287.0 L 204.3,287.5 L 204.6,288.1 L 204.8,288.7 L 205.0,289.3 Z" fill="#1f2937"/><path d="M 165.0,300.0 L 165.0,300.7 L 164.8,301.3 L 164.6,301.9 L 164.3,302.5 L 164.0,303.0 L 163.5,303.5 L 163.0,304.0 L 162.5,304.3 L 161.9,304.6 L 161.3,304.8 L 160.7,305.0 L 160.0,305.0 L 159.3,305.0 L 158.7,304.8 L 158.1,304.6 L 157.5,304.3 L 157.0,304.0 L 156.5,303.5 L 156.0,303.0 L 155.7,302.5 L 155.4,301.9 L 155.2,301.3 L 155.0,300.7 L 155.0,300.0 L 155.0,299.3 L 155.2,298.7 L 155.4,298.1 L 155.7,297.5 L 156.0,297.0 L 156.5,296.5 L 157.0,296.0 L 157.5,295.7 L 158.1,295.4 L 158.7,295.2 L 159.3,295.0 L 160.0,295.0 L 160.7,295.0 L 161.3,295.2 L 161.9,295.4 L 162.5,295.7 L 163.0,296.0 L 163.5,296.5 L 164.0,297.0 L 164.3,297.5 L 164.6,298.1 L 164.8,298.7 L 165.0,299.3 Z" fill="#1f2937"/><path d="M 245.0,300.0 L 245.0,300.7 L 244.8,301.3 L 244.6,301.9 L 244.3,302.5 L 244.0,303.0 L 243.5,303.5 L 243.0,304.0 L 242.5,304.3 L 241.9,304.6 L 241.3,304.8 L 240.7,305.0 L 240.0,305.0 L 239.3,305.0 L 238.7,304.8 L 238.1,304.6 L 237.5,304.3 L 237.0,304.0 L 236.5,303.5 L 236.0,303.0 L 235.7,302.5 L 235.4,301.9 L 235.2,301.3 L 235.0,300.7 L 235.0,300.0 L 235.0,299.3 L 235.2,298.7 L 235.4,298.1 L 235.7,297.5 L 236.0,297.0 L 236.5,296.5 L 237.0,296.0 L 237.5,295.7 L 238.1,295.4 L 238.7,295.2 L 239.3,295.0 L 240.0,295.0 L 240.7,295.0 L 241.3,295.2 L 241.9,295.4 L 242.5,295.7 L 243.0,296.0 L 243.5,296.5 L 244.0,297.0 L 244.3,297.5 L 244.6,298.1 L 244.8,298.7 L 245.0,299.3 Z" fill="#1f2937"/><path d="M 205.0,230.0 L 205.0,230.7 L 204.8,231.3 L 204.6,231.9 L 204.3,232.5 L 204.0,233.0 L 203.5,233.5 L 203.0,234.0 L 202.5,234.3 L 201.9,234.6 L 201.3,234.8 L 200.7,235.0 L 200.0,235.0 L 199.3,235.0 L 198.7,234.8 L 198.1,234.6 L 197.5,234.3 L 197.0,234.0 L 196.5,233.5 L 196.0,233.0 L 195.7,232.5 L 195.4,231.9 L 195.2,231.3 L 195.0,230.7 L 195.0,230.0 L 195.0,229.3 L 195.2,228.7 L 195.4,228.1 L 195.7,227.5 L 196.0,227.0 L 196.5,226.5 L 197.0,226.0 L 197.5,225.7 L 198.1,225.4 L 198.7,225.2 L 199.3,225.0 L 200.0,225.0 L 200.7,225.0 L 201.3,225.2 L 201.9,225.4 L 202.5,225.7 L 203.0,226.0 L 203.5,226.5 L 204.0,227.0 L 204.3,227.5 L 204.6,228.1 L 204.8,228.7 L 205.0,229.3 Z" fill="#1f2937"/>
  </g>
</svg>