<svg xmlns="http://www.w3.org/2000/svg" viewBox="0 0 800 600">
  <defs>
    <pattern id="dots" width="18" height="18" patternUnits="userSpaceOnUse">
      <circle cx="3" cy="3" r="1.6" fill="rgba(255,255,255,0.25)"/>
    </pattern>
  </defs>
  <rect width="800" height="600" fill="#0D9488"/>
  <rect width="800" height="600" fill="url(#dots)"/>
  <rect x="14" y="14" width="772" height="572" fill="none" stroke="#1f2937" stroke-width="10" rx="18"/>
  
  <g opacity="0.9">
    <ellipse cx="180" cy="150" rx="70" ry="40" fill="#fff"/>
    <ellipse cx="230" cy="130" rx="55" ry="34" fill="#fff"/>
    <ellipse cx="130" cy="130" rx="45" ry="30" fill="#fff"/>
  </g>
  <g>
    <rect x="120" y="440" width="120" height="100" fill="#F59E0B" stroke="#1f2937" stroke-width="5"/>
    <polygon points="110,440 180,390 250,440" fill="#DC2626" stroke="#1f2937" stroke-width="5"/>
    <rect x="600" y="420" width="110" height="120" fill="#3B82F6" stroke="#1f2937" stroke-width="5"/>
    <polygon points="590,420 655,375 720,420" fill="#DC2626" stroke="#1f2937" stroke-width="5"/>
  </g>
  <g>
    <polygon points="400,320 425,390 500,390 438,432 462,502 400,458 338,502 362,432 300,390 375,390"
             fill="#FBBF24" stroke="#1f2937" stroke-width="6"/>
    <circle cx="385" cy="365" r="7" fill="#1f2937"/>
    <circle cx="415" cy="365" r="7" fill="#1f2937"/>
    <path d="M385 385 Q400 398 415 385" fill="none" stroke="#1f2937" stroke-width="5" stroke-linecap="round"/>
  </g><text x="400" y="560" text-anchor="middle" font-family="Comic Sans MS, Arial, sans-serif" font-size="34" font-weight="900" fill="#fff" stroke="#1f2937" stroke-width="1.2">The Kind Little Star</text>
  
</svg>