<svg xmlns="http://www.w3.org/2000/svg" viewBox="0 0 800 600">
  <defs>
    <pattern id="dots" width="18" height="18" patternUnits="userSpaceOnUse">
      <circle cx="3" cy="3" r="1.6" fill="rgba(255,255,255,0.25)"/>
    </pattern>
  </defs>
  <rect width="800" height="600" fill="#312E81"/>
  <rect width="800" height="600" fill="url(#dots)"/>
  <rect x="14" y="14" width="772" height="572" fill="none" stroke="#1f2937" stroke-width="10" rx="18"/>
  
  <g>
    <rect x="120" y="440" width="120" height="100" fill="#F59E0B" stroke="#1f2937" stroke-width="5"/>
    <polygon points="110,440 180,390 250,440" fill="#DC2626" stroke="#1f2937" stroke-width="5"/>
    <rect x="600" y="420" width="110" height="120" fill="#3B82F6" stroke="#1f2937" stroke-width="5"/>
    <polygon points="590,420 655,375 720,420" fill="#DC2626" stroke="#1f2937" stroke-width="5"/>
  </g>
  <g transform="translate(-40,-140) scale(0.9)">
    
  <g>
    <polygon points="400,320 425,390 500,390 438,432 462,502 400,458 338,502 362,432 300,390 375,390"
             fill="#FBBF24" stroke="#1f2937" stroke-width="6"/>
    <circle cx="385" cy="365" r="7" fill="#1f2937"/>
    <circle cx="415" cy="365" r="7" fill="#1f2937"/>
    <path d="M385 385 Q400 398 415 385" fill="none" stroke="#1f2937" stroke-width="5" stroke-linecap="round"/>
  </g>
  </g>
  <path d="M400 60 C420 200 380 320 350 380" stroke="#FDE68A" stroke-width="8" fill="none" stroke-dasharray="4 10"/>

  
        <g>
          <ellipse cx="420" cy="90" rx="150" ry="60" fill="white" stroke="#1f2937" stroke-width="6"/>
          <path d="M300 120 L330 170 L360 115 Z" fill="white" stroke="#1f2937" stroke-width="6"/>
          <text x="420" y="98" text-anchor="middle" font-family="Comic Sans MS, Arial, sans-serif"
                font-size="26" font-weight="700" fill="#1f2937">I'll shine for you!</text>
        </g>
</svg>